<svg xmlns="http://www.w3.org/2000/svg" width="75.214" height="87.551" viewBox="0 0 75.214 87.551">
  <g id="database" transform="translate(-4.1)">
    <path id="Path_51" data-name="Path 51" d="M45.629,35.627q-1.963.061-3.92.063c-1.307,0-2.62-.021-3.932-.063-11.043-.3-19.843-1.862-26.179-4.087A30.743,30.743,0,0,1,4.1,28V42.14c4.281,4.469,18.644,8.591,37.607,8.591S75.033,46.61,79.314,42.14V28a30.816,30.816,0,0,1-7.559,3.561C65.422,33.775,56.64,35.326,45.629,35.627Z" transform="translate(0 14.12)" fill="#acc6d5"/>
    <path id="Path_52" data-name="Path 52" d="M4.1,14.889v14.14c3.968,4.143,16.6,7.988,33.525,8.526.173.006.35.008.525.012.49.014.979.027,1.477.035q1.031.018,2.08.018t2.08-.017c.5-.008.987-.021,1.477-.035l.525-.012c16.928-.54,29.556-4.385,33.525-8.526V14.889c-7.321,5.029-22.8,7.688-37.607,7.688S11.423,19.918,4.1,14.889Z" transform="translate(0 7.508)" fill="#acc6d5"/>
    <path id="Path_53" data-name="Path 53" d="M79.111,12.85C77.424,6.38,64.445,0,41.707,0,19.027,0,6.062,6.348,4.321,12.8a1.46,1.46,0,0,0-.221.737v3.469c4.268,4.454,18.528,8.565,37.607,8.565s33.341-4.111,37.607-8.565V13.539A1.385,1.385,0,0,0,79.111,12.85Z" transform="translate(0)" fill="#acc6d5"/>
    <path id="Path_54" data-name="Path 54" d="M4.1,41V53.337a1.415,1.415,0,0,0,.176.678c1.777,7.364,17.671,12.86,37.431,12.86,19.715,0,35.584-5.474,37.419-12.811a1.494,1.494,0,0,0,.188-.728V41c-6.22,4.379-19.037,7.821-37.607,7.821S10.319,45.379,4.1,41Z" transform="translate(0 20.676)" fill="#acc6d5"/>
  </g>
</svg>
