<svg xmlns="http://www.w3.org/2000/svg" width="140" height="140" viewBox="0 0 140 140">
  <g id="hiking" transform="translate(-67 1)">
    <rect id="Rectangle_34" data-name="Rectangle 34" width="140" height="140" transform="translate(67 -1)" fill="none"/>
    <g id="Group_30" data-name="Group 30" transform="translate(98.806 14.528)">
      <path id="Path_68" data-name="Path 68" d="M217.169,20a10,10,0,1,0-10-10A10,10,0,0,0,217.169,20Z" transform="translate(-176.086 -1.001)" fill="#4e5f69"/>
      <path id="Path_69" data-name="Path 69" d="M153.454,72.855a4.945,4.945,0,0,0-5.006-4.882H131.522l-9.546-13.218.031-.225a9.424,9.424,0,0,0-1.955-7.1A9.954,9.954,0,0,0,105.9,45.985v-11a3.472,3.472,0,0,0-3.516-3.427H92.645a3.472,3.472,0,0,0-3.516,3.427V75.718a9.668,9.668,0,0,0,8.893,9.509l-.752,1.705-5.9,21.728-13.281,17.4a5.762,5.762,0,0,0,1.232,8.2,6.108,6.108,0,0,0,8.4-1.2L101.7,114.749a5.786,5.786,0,0,0,.989-2l4.021-14.8,11,9.854-1.5,21.359a5.907,5.907,0,0,0,5.581,6.245c.136.01.278.013.418.013a5.944,5.944,0,0,0,5.984-5.458l1.7-24.17a5.782,5.782,0,0,0-1.932-4.716L116.6,90.9l3.458-21.843,4.778,6.614a5.047,5.047,0,0,0,4.091,2.071h17.52l.331,56a2,2,0,0,0,4,0l-.331-56.417A4.873,4.873,0,0,0,153.454,72.855Z" transform="translate(-76.903 -22.965)" fill="#4e5f69"/>
    </g>
  </g>
</svg>
