<svg id="hiking" xmlns="http://www.w3.org/2000/svg" width="84.357" height="126.251" viewBox="0 0 84.357 126.251">
  <path id="Path_68" data-name="Path 68" d="M217.86,21.381a10.69,10.69,0,1,0-10.689-10.691A10.69,10.69,0,0,0,217.86,21.381Z" transform="translate(-171.688 -0.001)" fill="#4e5f69"/>
  <path id="Path_69" data-name="Path 69" d="M161.26,78.22a5.516,5.516,0,0,0-5.517-5.516H137.091L126.572,57.769l.035-.254a10.814,10.814,0,0,0-17.751-9.656V35.434a3.873,3.873,0,0,0-3.875-3.872H94.25a3.873,3.873,0,0,0-3.875,3.872v46.02a10.815,10.815,0,0,0,9.8,10.744l-.829,1.927-6.5,24.551L78.213,138.339a6.619,6.619,0,1,0,10.619,7.9l15.4-20.686a6.6,6.6,0,0,0,1.09-2.258l4.431-16.728,12.127,11.134-1.655,24.134a6.616,6.616,0,0,0,6.15,7.057c.15.011.306.015.461.015a6.616,6.616,0,0,0,6.594-6.167l1.875-27.31a6.616,6.616,0,0,0-2.129-5.329l-12.528-11.5,3.811-24.681,5.265,7.473a5.519,5.519,0,0,0,4.508,2.34h19.307l.365,63.273a2.207,2.207,0,0,0,4.413,0l-.365-63.747A5.508,5.508,0,0,0,161.26,78.22Z" transform="translate(-76.903 -22.965)" fill="#4e5f69"/>
</svg>
