<svg xmlns="http://www.w3.org/2000/svg" width="24.133" height="32.721" viewBox="0 0 24.133 32.721">
  <g id="Java" transform="translate(-184 -682.336)">
    <path id="Path_2" data-name="Path 2" d="M67.524,267.473s-1.25.727.89.973a18.724,18.724,0,0,0,6.776-.287,11.789,11.789,0,0,0,1.8.879c-6.406,2.745-14.5-.159-9.466-1.565" transform="translate(124.248 440.169)" fill="#5382a1"/>
    <path id="Path_3" data-name="Path 3" d="M57.465,229.659s-1.4,1.038.739,1.26a26.433,26.433,0,0,0,8.742-.42,3.88,3.88,0,0,0,1.347.821c-7.745,2.265-16.371.179-10.828-1.661" transform="translate(133.525 474.4)" fill="#5382a1"/>
    <path id="Path_4" data-name="Path 4" d="M130.109,79.876c1.578,1.817-.415,3.452-.415,3.452s4.008-2.069,2.167-4.66c-1.719-2.416-3.037-3.616,4.1-7.755,0,0-11.2,2.8-5.852,8.963" transform="translate(67.479 618.105)" fill="#e76f00"/>
    <path id="Path_5" data-name="Path 5" d="M22.577,292.8s.925.762-1.019,1.352c-3.7,1.12-15.389,1.458-18.637.045-1.168-.508,1.022-1.213,1.711-1.361a4.441,4.441,0,0,1,1.129-.127c-1.3-.915-8.392,1.8-3.6,2.572,13.06,2.118,23.807-.954,20.42-2.482" transform="translate(183.483 417.494)" fill="#5382a1"/>
    <path id="Path_6" data-name="Path 6" d="M34,190.429s-5.947,1.412-2.106,1.925a44.669,44.669,0,0,0,7.866-.084c2.461-.208,4.932-.649,4.932-.649a10.441,10.441,0,0,0-1.5.8c-6.039,1.588-17.706.849-14.347-.775A11.252,11.252,0,0,1,34,190.429" transform="translate(158.374 509.918)" fill="#5382a1"/>
    <path id="Path_7" data-name="Path 7" d="M200.327,193.422c6.139-3.19,3.3-6.256,1.319-5.843a4.593,4.593,0,0,0-.7.189,1.119,1.119,0,0,1,.525-.4c3.919-1.378,6.934,4.064-1.265,6.219a.534.534,0,0,0,.123-.161" transform="translate(2.714 512.888)" fill="#5382a1"/>
    <path id="Path_8" data-name="Path 8" d="M90.165.371s3.4,3.4-3.225,8.631c-5.312,4.2-1.211,6.587,0,9.32-3.1-2.8-5.376-5.261-3.85-7.553,2.241-3.365,8.448-5,7.077-10.4" transform="translate(109.175 681.965)" fill="#e76f00"/>
    <path id="Path_9" data-name="Path 9" d="M51.065,316.023c5.893.377,14.942-.209,15.156-3,0,0-.412,1.057-4.87,1.9a48.445,48.445,0,0,1-14.912.229s.753.623,4.626.872" transform="translate(141.911 398.931)" fill="#5382a1"/>
  </g>
</svg>
