<svg xmlns="http://www.w3.org/2000/svg" width="140" height="140" viewBox="0 0 140 140">
  <g id="running" transform="translate(-8.216 15)">
    <rect id="Rectangle_32" data-name="Rectangle 32" width="140" height="140" transform="translate(8.216 -15)" fill="none"/>
    <g id="_x33_6_24_" transform="translate(-6.228 -1)">
      <g id="Group_26" data-name="Group 26" transform="translate(32.444)">
        <path id="Path_70" data-name="Path 70" d="M145.259,100.2h41.129a2.575,2.575,0,0,0,0-5H145.259a2.575,2.575,0,0,0,0,5Z" transform="translate(-132.056 -88.799)" fill="#4e5f69"/>
        <path id="Path_71" data-name="Path 71" d="M9.583,170.216H28.31c.492,0,.891-1.119.891-2.5s-.4-2.5-.891-2.5H9.583c-.492,0-.891,1.119-.891,2.5S9.091,170.216,9.583,170.216Z" transform="translate(-8.692 -135.243)" fill="#4e5f69"/>
        <path id="Path_72" data-name="Path 72" d="M56.258,248.554c0,1.381.488,2.5,1.089,2.5H80.236c.6,0,1.089-1.12,1.089-2.5s-.488-2.5-1.089-2.5H57.347C56.746,246.054,56.258,247.173,56.258,248.554Z" transform="translate(-48.173 -188.865)" fill="#4e5f69"/>
        <path id="Path_73" data-name="Path 73" d="M13.461,336.44H.677c-.374,0-.677,1.119-.677,2.5s.3,2.5.677,2.5H13.461c.374,0,.677-1.119.677-2.5S13.835,336.44,13.461,336.44Z" transform="translate(0 -248.82)" fill="#4e5f69"/>
        <path id="Path_74" data-name="Path 74" d="M356.611,96.191a10,10,0,1,0-10-10A10,10,0,0,0,356.611,96.191Z" transform="translate(-282.095 -66.191)" fill="#4e5f69"/>
        <path id="Path_75" data-name="Path 75" d="M223.816,137.157c-5.208,10.591-12.182,11.818-19.687,5.35-.511-.44-2.777-2.253-3.279-2.686-12.073-10.405-24.132-6.325-32.219,10.117-3.437,6.993,4.512,13.622,7.91,6.71,4.178-8.5,9.491-10.953,15.3-8.262-2.975,7.5-5.576,14.95-9.247,25.538s-11.777,19.043-19.566,12.43c-5.62-4.769-10.688,6.953-5.085,11.707,10.633,9.023,23.1,3.482,29.467-8.246a4.413,4.413,0,0,0,.71.456c5.2,2.63,12.016,9.632,14.093,12.114s5.644,15.124,7.762,21.476c2.57,7.708,10.869,2.094,8.29-5.646-2.4-7.207-6.432-21.591-9.576-25.23-2.522-2.919-7.418-8.351-11.571-11.432q4.214-11.851,8.814-23.4c9.816,4.366,19.146-.777,25.791-14.291C235.163,136.874,227.217,130.245,223.816,137.157Z" transform="translate(-134.523 -108.612)" fill="#4e5f69"/>
      </g>
    </g>
  </g>
</svg>
