<svg xmlns="http://www.w3.org/2000/svg" width="140" height="140" viewBox="0 0 140 140">
  <g id="swimming" transform="translate(16.883 29.502)">
    <rect id="Rectangle_33" data-name="Rectangle 33" width="140" height="140" transform="translate(-16.883 -29.502)" fill="none"/>
    <g id="Group_27" data-name="Group 27" transform="translate(0.384 8.097)">
      <path id="Path_76" data-name="Path 76" d="M69.544,180.143l24.263,3.273c.847,2.256,5.113,13.36,5.915,15.347h-.011q-10.544,5.47-21.088,10.928a39.272,39.272,0,0,1,7.4-.7,36.979,36.979,0,0,1,9.48,1.216A99.944,99.944,0,0,1,112.544,217a87.1,87.1,0,0,0,13.814,5.622c.635.175,1.248.327,1.86.456-5.347-11.489-19.729-42.452-22.57-49.266-1.337-3.214-3.175-4.406-5.782-4.757l-28.5-3.845a7.268,7.268,0,0,0-8.043,6.51A7.483,7.483,0,0,0,69.544,180.143Z" transform="translate(-56.224 -165.145)" fill="#4e5f69"/>
      <path id="Path_77" data-name="Path 77" d="M1.858,591.524a4.278,4.278,0,0,0,2.6.877,3.16,3.16,0,0,0,.579-.047,4.425,4.425,0,0,0,3.041-1.905,25.34,25.34,0,0,1,12.555-9.362A27.963,27.963,0,0,1,29.8,579.52c11.107,0,20.631,6.966,30.657,10.975a45.524,45.524,0,0,0,17.066,3.74,34.844,34.844,0,0,0,7.965-.923,30.335,30.335,0,0,0,16.03-9.245,26.515,26.515,0,0,0,2.6-3.46,4.816,4.816,0,0,0-1.259-6.475,4.261,4.261,0,0,0-2.451-.771,4.4,4.4,0,0,0-3.721,2.092,17.072,17.072,0,0,1-1.136,1.59,21.206,21.206,0,0,1-11.975,7.141,29.981,29.981,0,0,1-14.281-.491,89.7,89.7,0,0,1-14.348-5.821c-5.236-2.466-10.639-5.026-16.5-6.592a33.4,33.4,0,0,0-8.656-1.11,36.583,36.583,0,0,0-12,2.045,35.515,35.515,0,0,0-9.38,4.944A32.788,32.788,0,0,0,.822,584.99a4.693,4.693,0,0,0-.345.608A4.85,4.85,0,0,0,1.858,591.524Z" transform="translate(-0.001 -522.83)" fill="#4e5f69"/>
      <circle id="Ellipse_1" data-name="Ellipse 1" cx="10" cy="10" r="10" transform="translate(64.814 20.525)" fill="#4e5f69"/>
    </g>
  </g>
</svg>
