<svg xmlns="http://www.w3.org/2000/svg" width="22.27" height="22.142" viewBox="0 0 22.27 22.142">
  <g id="vscode" transform="translate(0.156 -0.66)">
    <path id="Path_55" data-name="Path 55" d="M21.326,3.008,16.741.8a1.386,1.386,0,0,0-1.582.269L.146,14.756a.927.927,0,0,0,0,1.371l1.226,1.115a.927.927,0,0,0,1.184.053L20.636,3.58a.921.921,0,0,1,1.478.734V4.261A1.391,1.391,0,0,0,21.326,3.008Z" transform="translate(0 -0.002)" fill="#0065a9"/>
    <g id="Group_21" data-name="Group 21" transform="translate(-0.156 5.98)">
      <path id="Path_56" data-name="Path 56" d="M21.326,76.332,16.741,78.54a1.387,1.387,0,0,1-1.582-.269L.146,64.583a.927.927,0,0,1,0-1.371L1.374,62.1a.927.927,0,0,1,1.184-.053L20.636,75.759a.921.921,0,0,0,1.478-.734v.053A1.391,1.391,0,0,1,21.326,76.332Z" transform="translate(0.156 -61.856)" fill="#007acc"/>
    </g>
    <g id="Group_22" data-name="Group 22" transform="translate(15.159 0.66)">
      <path id="Path_57" data-name="Path 57" d="M177.582,22.665A1.387,1.387,0,0,1,176,22.4a.815.815,0,0,0,1.391-.576V1.642A.815.815,0,0,0,176,1.066,1.387,1.387,0,0,1,177.582.8L182.167,3a1.391,1.391,0,0,1,.788,1.254V19.206a1.391,1.391,0,0,1-.788,1.254Z" transform="translate(-176 -0.66)" fill="#1f9cf0"/>
    </g>
  </g>
</svg>
