<svg xmlns="http://www.w3.org/2000/svg" width="40" height="47.331" viewBox="0 0 40 47.331">
  <path id="Android" d="M47.6,25.793a2.927,2.927,0,0,0-5.854,0v12.2a2.927,2.927,0,1,0,5.854,0Zm-34.146,0a2.927,2.927,0,0,0-5.854,0v12.2a2.927,2.927,0,1,0,5.854,0ZM34,11.847l2.066-3.73a.4.4,0,0,0-.158-.56.467.467,0,0,0-.2-.057.394.394,0,0,0-.359.215l-2.095,3.773a14.012,14.012,0,0,0-11.306,0l-2.08-3.773a.411.411,0,1,0-.717.4l2.066,3.73a11.894,11.894,0,0,0-6.671,10.488H40.656A11.906,11.906,0,0,0,34,11.847Zm-12.425,5.71a1.09,1.09,0,1,1,1.09-1.09A1.09,1.09,0,0,1,21.574,17.557Zm12.052,0a1.09,1.09,0,1,1,1.09-1.09A1.09,1.09,0,0,1,33.626,17.557ZM14.544,23.368V42.292A3.147,3.147,0,0,0,17.7,45.448H19.8V51.9a2.927,2.927,0,1,0,5.854,0V45.448h3.9V51.9a2.927,2.927,0,1,0,5.854,0V45.448H37.5a3.147,3.147,0,0,0,3.156-3.156V23.368Z" transform="translate(-7.6 -7.5)" fill="#79c257"/>
</svg>
