<svg xmlns="http://www.w3.org/2000/svg" width="84.495" height="99.982" viewBox="0 0 84.495 99.982">
  <path id="Android" d="M92.095,46.141a6.183,6.183,0,0,0-12.365,0V71.9a6.183,6.183,0,1,0,12.365,0Zm-72.13,0a6.183,6.183,0,0,0-12.365,0V71.9a6.183,6.183,0,1,0,12.365,0Zm43.4-29.458L67.728,8.8a.85.85,0,0,0-.333-1.182.987.987,0,0,0-.424-.121.833.833,0,0,0-.758.455l-4.425,7.971a29.6,29.6,0,0,0-23.882,0L33.512,7.955A.868.868,0,1,0,32,8.8l4.364,7.88c-8.425,4.364-14.093,12.638-14.093,22.154H77.427C77.427,29.321,71.759,21.047,63.364,16.683ZM37.119,28.745a2.3,2.3,0,1,1,2.3-2.3A2.3,2.3,0,0,1,37.119,28.745Zm25.458,0a2.3,2.3,0,1,1,2.3-2.3A2.3,2.3,0,0,1,62.576,28.745ZM22.268,41.019V80.994a6.648,6.648,0,0,0,6.667,6.667h4.425V101.3a6.183,6.183,0,1,0,12.365,0V87.661h8.243V101.3a6.183,6.183,0,1,0,12.365,0V87.661h4.425a6.648,6.648,0,0,0,6.667-6.667V41.019Z" transform="translate(-7.6 -7.5)" fill="#acc6d5"/>
</svg>
