<svg xmlns="http://www.w3.org/2000/svg" width="36.511" height="42.5" viewBox="0 0 36.511 42.5">
  <g id="database" transform="translate(-4.1)">
    <path id="Path_51" data-name="Path 51" d="M24.259,31.7q-.953.03-1.9.031c-.635,0-1.272-.01-1.909-.031A42.856,42.856,0,0,1,7.739,29.718,14.924,14.924,0,0,1,4.1,28v6.864c2.078,2.17,9.05,4.17,18.256,4.17s16.177-2,18.256-4.17V28a14.959,14.959,0,0,1-3.669,1.728A42.933,42.933,0,0,1,24.259,31.7Z" transform="translate(0 -7.554)" fill="#b46060"/>
    <path id="Path_52" data-name="Path 52" d="M4.1,14.889v6.864c1.926,2.011,8.057,3.878,16.274,4.139l.255.006c.238.007.475.013.717.017q.5.009,1.01.009t1.01-.008c.241,0,.479-.01.717-.017l.255-.006c8.217-.262,14.348-2.129,16.274-4.139V14.889c-3.554,2.441-11.067,3.732-18.256,3.732S7.655,17.33,4.1,14.889Z" transform="translate(0 -4.017)" fill="#b46060"/>
    <path id="Path_53" data-name="Path 53" d="M40.513,6.238C39.694,3.1,33.393,0,22.356,0,11.346,0,5.052,3.082,4.207,6.214a.709.709,0,0,0-.107.358V8.256c2.072,2.162,8.994,4.158,18.256,4.158s16.185-2,18.256-4.158V6.572A.672.672,0,0,0,40.513,6.238Z" fill="#b46060"/>
    <path id="Path_54" data-name="Path 54" d="M4.1,41v5.989a.687.687,0,0,0,.085.329c.862,3.574,8.578,6.243,18.17,6.243,9.57,0,17.274-2.657,18.164-6.219a.725.725,0,0,0,.091-.353V41c-3.019,2.126-9.241,3.8-18.256,3.8S7.119,43.126,4.1,41Z" transform="translate(0 -11.061)" fill="#b46060"/>
  </g>
</svg>
