<svg xmlns="http://www.w3.org/2000/svg" width="15.154" height="30" viewBox="0 0 15.154 30">
  <g id="XMLID_834_" transform="translate(-76.703)">
    <path id="XMLID_835_" d="M77.187,15.978h3.288V29.516a.484.484,0,0,0,.484.484h5.576a.484.484,0,0,0,.484-.484V16.042H90.8a.484.484,0,0,0,.481-.429l.574-4.984a.484.484,0,0,0-.481-.539H87.019V6.966c0-.942.507-1.419,1.507-1.419h2.847a.484.484,0,0,0,.484-.484V.487A.484.484,0,0,0,91.373,0H87.45c-.028,0-.089,0-.18,0a7.519,7.519,0,0,0-4.917,1.853,5.156,5.156,0,0,0-1.714,4.583V10.09H77.187a.484.484,0,0,0-.484.484v4.92A.484.484,0,0,0,77.187,15.978Z" fill="#4e5f69"/>
  </g>
</svg>
