<svg xmlns="http://www.w3.org/2000/svg" width="27.753" height="30" viewBox="0 0 27.753 30">
  <g id="github-svgrepo-com" transform="translate(-14.728 -17.04)">
    <path id="Path_56" data-name="Path 56" d="M34.514,46.963c-.128-1.739.008-4.363,0-5.235a4.216,4.216,0,0,0-1.744-3.46c6.418-.537,9.472-4.085,9.692-8.772A8.777,8.777,0,0,0,39.7,22.585a37.972,37.972,0,0,0-.192-5.483c-1.447-.417-4.822,1.365-5.765,2.128a17.937,17.937,0,0,0-9.815,0c-2.1-1.475-4.485-2.386-5.786-2.132a6.92,6.92,0,0,0-.195,5.479c-1.547,1.414-3.706,3.154-3.119,6.8.94,5.346,4.7,8.229,10.757,8.935a1.961,1.961,0,0,0-1.618,1.646c-4.067,1.678-5.229-1.036-5.743-1.743-1.707-2.113-3.239-1.5-3.333-1.467a.267.267,0,0,0-.151.231c.086.456,1.015.918,1.061.955a7.9,7.9,0,0,1,2.014,3.118c1.807,2.971,6.007,1.739,6.047,1.764,0,.26.131,2.446.106,4.147,0,0,.456.173,5.21,0C35.291,47.07,34.514,46.963,34.514,46.963Z" fill="#4e5f69"/>
  </g>
</svg>
