<svg xmlns="http://www.w3.org/2000/svg" width="73.732" height="90.551" viewBox="0 0 73.732 90.551">
  <g id="apple" transform="translate(-0.149 -0.349)">
    <g id="g186" transform="translate(0.149 22.176)">
      <path id="path188" d="M2547.109-4579.443c-.1-11.462,9.36-16.961,9.788-17.232a21.168,21.168,0,0,0-16.568-8.98c-7.048-.715-13.76,4.148-17.332,4.148s-9.1-4.046-14.941-3.933a22.157,22.157,0,0,0-18.736,11.352c-7.984,13.851-2.037,34.379,5.736,45.62,3.807,5.5,8.337,11.689,14.3,11.459,5.741-.227,7.909-3.707,14.838-3.707s8.881,3.707,14.947,3.6c6.168-.12,10.083-5.615,13.862-11.128a49.752,49.752,0,0,0,6.266-12.881c-.136-.059-12.03-4.618-12.156-18.318" transform="translate(-2485.532 4605.727)" fill="#acc6d5"/>
    </g>
    <path id="path190" d="M365.81,14.81A19.917,19.917,0,0,0,370.518.349c-4.554.183-10.067,3.036-13.337,6.866-2.927,3.384-5.5,8.806-4.8,14,5.079.394,10.267-2.586,13.429-6.409" transform="translate(-315.48 0)" fill="#acc6d5"/>
  </g>
</svg>
