<svg xmlns="http://www.w3.org/2000/svg" width="37.245" height="45.741" viewBox="0 0 37.245 45.741">
  <g id="apple" transform="translate(-0.149 -0.349)">
    <g id="g186" transform="translate(0.149 11.374)">
      <path id="path188" d="M2516.637-4592.451a10.351,10.351,0,0,1,4.944-8.7,10.693,10.693,0,0,0-8.369-4.536c-3.56-.361-6.95,2.1-8.755,2.1s-4.595-2.044-7.547-1.987a11.192,11.192,0,0,0-9.464,5.734c-4.033,7-1.029,17.366,2.9,23.044,1.923,2.776,4.211,5.9,7.221,5.788,2.9-.115,4-1.873,7.495-1.873s4.486,1.873,7.55,1.819c3.116-.061,5.094-2.836,7-5.622a25.137,25.137,0,0,0,3.165-6.506,10.106,10.106,0,0,1-6.14-9.253" transform="translate(-2485.532 4605.728)" fill="#b3b3b3"/>
    </g>
    <path id="path190" d="M359.108,7.654a10.061,10.061,0,0,0,2.378-7.3,10.249,10.249,0,0,0-6.737,3.468,9.563,9.563,0,0,0-2.425,7.074,8.487,8.487,0,0,0,6.783-3.238" transform="translate(-333.61 0)" fill="#b3b3b3"/>
  </g>
</svg>
