<svg xmlns="http://www.w3.org/2000/svg" width="28.132" height="19.261" viewBox="0 0 28.132 19.261">
  <path id="laravel" d="M28.025,8.985c-.2-.2-2.775-3.444-3.21-3.979-.468-.535-.669-.435-.97-.4s-3.544.6-3.912.635c-.368.067-.6.2-.368.535.2.3,2.341,3.31,2.809,4.013l-8.527,2.04L7.093.492c-.268-.4-.334-.535-.936-.5S.84.425.505.425c-.334.033-.7.167-.368.97S5.822,13.7,5.956,14.034a1.149,1.149,0,0,0,1.438.669c.936-.234,4.146-1.07,5.918-1.538.936,1.672,2.809,5.083,3.177,5.584.468.669.8.535,1.5.334.568-.167,8.761-3.11,9.129-3.277s.6-.268.334-.635c-.2-.268-2.341-3.177-3.478-4.681.769-.2,3.544-.936,3.845-1.037.334-.1.4-.268.2-.468ZM12.543,12.162c-.1.033-4.882,1.17-5.116,1.237-.268.067-.268.033-.268-.067-.067-.1-5.684-11.737-5.785-11.87-.067-.134-.067-.268,0-.268s4.514-.4,4.648-.4c.167,0,.134.033.2.134,0,0,6.253,10.8,6.353,10.968.134.167.067.234-.033.268Zm13.442,2.508c.067.134.167.2-.1.268-.234.1-8.059,2.742-8.226,2.809s-.268.1-.468-.2-2.742-4.681-2.742-4.681l8.326-2.173c.2-.067.268-.1.4.1.134.234,2.742,3.778,2.809,3.879Zm.535-5.885c-.2.033-3.243.8-3.243.8L20.769,6.176c-.067-.1-.134-.2.033-.234s3.009-.535,3.143-.568.234-.067.4.167c.167.2,2.307,2.943,2.408,3.043S26.721,8.751,26.52,8.784Z" transform="translate(-0.006 0.015)" fill="#fb503b"/>
</svg>
