<svg xmlns="http://www.w3.org/2000/svg" width="30" height="28.678" viewBox="0 0 30 28.678">
  <g id="linkedin-logo" transform="translate(0 -0.491)">
    <path id="Path_55" data-name="Path 55" d="M7.233,3.836A3.355,3.355,0,0,1,3.595,7.178H3.553A3.352,3.352,0,1,1,3.637.491,3.342,3.342,0,0,1,7.233,3.836ZM.377,29.167H6.81V9.821H.377ZM22.6,9.368a6.389,6.389,0,0,0-5.8,3.195v.062h-.042a.313.313,0,0,0,.042-.062V9.822H10.368c.084,1.813,0,19.346,0,19.346H16.8v-10.8A4.343,4.343,0,0,1,17.01,16.8a3.532,3.532,0,0,1,3.3-2.355c2.331,0,3.262,1.778,3.262,4.377V29.169H30V18.077C30,12.13,26.826,9.368,22.6,9.368Z" fill="#4e5f69"/>
  </g>
</svg>
