<svg xmlns="http://www.w3.org/2000/svg" width="164.234" height="112.93" viewBox="0 0 164.234 112.93">
  <g id="running" transform="translate(20 1)">
    <g id="_x33_6_24_" transform="translate(-20 -1)">
      <g id="Group_26" data-name="Group 26">
        <path id="Path_70" data-name="Path 70" d="M145.713,100.021h50.674a2.411,2.411,0,0,0,0-4.822H145.713a2.411,2.411,0,0,0,0,4.822Z" transform="translate(-95.056 -88.799)" fill="#4e5f69"/>
        <path id="Path_71" data-name="Path 71" d="M11.1,170.038H61.776a2.411,2.411,0,1,0,0-4.822H11.1a2.411,2.411,0,1,0,0,4.822Z" transform="translate(-5.766 -135.243)" fill="#4e5f69"/>
        <path id="Path_72" data-name="Path 72" d="M56.258,248.465a2.411,2.411,0,0,0,2.411,2.411h50.673a2.411,2.411,0,1,0,0-4.822H58.669A2.411,2.411,0,0,0,56.258,248.465Z" transform="translate(-37.317 -188.865)" fill="#4e5f69"/>
        <path id="Path_73" data-name="Path 73" d="M47.941,336.44H2.411a2.411,2.411,0,1,0,0,4.822h45.53a2.411,2.411,0,1,0,0-4.822Z" transform="translate(0 -248.82)" fill="#4e5f69"/>
        <path id="Path_74" data-name="Path 74" d="M359.78,102.528a13.169,13.169,0,1,0-13.17-13.169A13.169,13.169,0,0,0,359.78,102.528Z" transform="translate(-229.915 -76.191)" fill="#4e5f69"/>
        <path id="Path_75" data-name="Path 75" d="M254.679,137.157c-7.561,10.591-17.687,11.818-28.582,5.35-.742-.44-4.032-2.253-4.761-2.686-17.528-10.405-35.035-6.325-46.776,10.117-4.989,6.993,6.55,13.622,11.483,6.71,6.066-8.5,13.78-10.953,22.216-8.262-4.32,7.5-8.1,14.95-13.425,25.538s-17.1,19.043-28.407,12.43c-8.159-4.769-15.517,6.953-7.383,11.707,15.438,9.023,33.539,3.482,42.78-8.246a7.238,7.238,0,0,0,1.031.456c7.549,2.63,17.445,9.632,20.46,12.114s8.193,15.124,11.269,21.476c3.731,7.708,15.78,2.094,12.036-5.646-3.486-7.207-9.338-21.591-13.9-25.23-3.661-2.919-10.77-8.351-16.8-11.432q6.118-11.851,12.8-23.4c14.251,4.366,27.8-.777,37.443-14.291C271.152,136.874,259.616,130.245,254.679,137.157Z" transform="translate(-103.152 -114.612)" fill="#4e5f69"/>
      </g>
    </g>
  </g>
</svg>
