<svg xmlns="http://www.w3.org/2000/svg" width="113.117" height="73.422" viewBox="0 0 113.117 73.422">
  <g id="swimming" transform="translate(0)">
    <g id="Group_27" data-name="Group 27" transform="translate(0 0)">
      <path id="Path_76" data-name="Path 76" d="M70.039,180.567l26.176,3.365c.914,2.32,5.516,13.737,6.382,15.78h-.012q-11.375,5.625-22.751,11.237a44.389,44.389,0,0,1,7.98-.721,41.749,41.749,0,0,1,10.228,1.25c6.622,1.683,12.607,4.375,18.388,6.983a96.671,96.671,0,0,0,14.9,5.781c.685.18,1.346.337,2.007.469-5.769-11.814-21.284-43.65-24.349-50.657-1.442-3.305-3.425-4.531-6.237-4.891L72.01,165.208a7.743,7.743,0,1,0-1.971,15.359Z" transform="translate(-55.668 -165.145)" fill="#4e5f69"/>
      <path id="Path_77" data-name="Path 77" d="M2,592.127a4.766,4.766,0,0,0,2.8.9,3.574,3.574,0,0,0,.625-.048,4.809,4.809,0,0,0,3.281-1.959,27.258,27.258,0,0,1,13.545-9.627,31.511,31.511,0,0,1,9.891-1.61c11.982,0,22.258,7.163,33.074,11.285a51.166,51.166,0,0,0,18.412,3.846,39.357,39.357,0,0,0,8.593-.949,33.117,33.117,0,0,0,17.294-9.507,27.409,27.409,0,0,0,2.8-3.557,4.806,4.806,0,0,0-1.358-6.658,4.756,4.756,0,0,0-2.644-.793A4.805,4.805,0,0,0,104.3,575.6a17.594,17.594,0,0,1-1.226,1.635,23.1,23.1,0,0,1-12.92,7.343,33.886,33.886,0,0,1-15.407-.5,99.563,99.563,0,0,1-15.48-5.985c-5.649-2.536-11.477-5.168-17.8-6.778a37.71,37.71,0,0,0-9.338-1.142,41.225,41.225,0,0,0-12.944,2.1,38.993,38.993,0,0,0-10.119,5.084,34.513,34.513,0,0,0-8.184,8.052,4.764,4.764,0,0,0-.373.625A4.838,4.838,0,0,0,2,592.127Z" transform="translate(-0.001 -521.493)" fill="#4e5f69"/>
      <ellipse id="Ellipse_1" data-name="Ellipse 1" cx="16.958" cy="16.958" rx="16.958" ry="16.958" transform="translate(72.082 14.413)" fill="#4e5f69"/>
    </g>
  </g>
</svg>
