<svg xmlns="http://www.w3.org/2000/svg" xmlns:xlink="http://www.w3.org/1999/xlink" width="26" height="23.298" viewBox="0 0 26 23.298">
  <defs>
    <linearGradient id="linear-gradient" x1="0.5" x2="0.5" y2="1" gradientUnits="objectBoundingBox">
      <stop offset="0" stop-color="#f88a36"/>
      <stop offset="1" stop-color="#fd2020"/>
    </linearGradient>
  </defs>
  <path id="swift" d="M19.612,21.687c-3.063,1.769-7.274,1.951-11.51.135A18,18,0,0,1,0,14.889a13.65,13.65,0,0,0,2.992,1.824c4.375,2.051,8.75,1.91,11.828.005l0-.005A62.81,62.81,0,0,1,3.941,5.4,12.491,12.491,0,0,1,2.481,3.43a84.23,84.23,0,0,0,10.582,8.028A77.98,77.98,0,0,1,5.619,2.116,74.026,74.026,0,0,0,17.881,12.188c.2.11.346.2.468.284a9.6,9.6,0,0,0,.335-1.014C19.705,7.736,18.538,3.5,15.983,0c5.911,3.576,9.415,10.29,7.955,15.91q-.057.227-.124.448l.051.063c2.919,3.649,2.116,7.517,1.751,6.787-1.583-3.1-4.515-2.151-6.005-1.522Z" transform="translate(0 0)" fill="url(#linear-gradient)"/>
</svg>
