<svg id="web" xmlns="http://www.w3.org/2000/svg" width="91.026" height="91.026" viewBox="0 0 91.026 91.026">
  <path id="Path_46" data-name="Path 46" d="M90.917,42.479A45.5,45.5,0,0,0,48.547.1V0H42.479V.1A45.507,45.507,0,0,0,.1,42.479H0v6.068H.1a45.5,45.5,0,0,0,42.376,42.37v.109h6.068v-.109a45.5,45.5,0,0,0,42.37-42.37h.109V42.479ZM28.491,9.922a48.247,48.247,0,0,0-7.136,14.352h-9.09A39.653,39.653,0,0,1,28.491,9.922ZM9.09,30.342H19.759a72.068,72.068,0,0,0-1.493,12.137H6.184A39.1,39.1,0,0,1,9.09,30.342ZM6.184,48.547H18.266a72.068,72.068,0,0,0,1.493,12.137H9.09A39.1,39.1,0,0,1,6.184,48.547Zm6.081,18.205h9.084A48.11,48.11,0,0,0,28.491,81.1,39.609,39.609,0,0,1,12.264,66.753ZM42.479,84.569C36.241,82.9,30.87,76.2,27.611,66.753H42.479Zm0-23.885H25.906a67.823,67.823,0,0,1-1.572-12.137H42.479Zm0-18.205H24.334a67.823,67.823,0,0,1,1.572-12.137H42.479Zm0-18.205H27.611C30.87,14.825,36.241,8.126,42.479,6.463Zm36.283,0H69.684A48.118,48.118,0,0,0,62.535,9.922,39.691,39.691,0,0,1,78.762,24.274ZM48.547,6.463c6.232,1.663,11.609,8.362,14.868,17.811H48.547Zm0,23.879H65.114a68.37,68.37,0,0,1,1.578,12.137H48.547Zm0,18.205H66.692a67.268,67.268,0,0,1-1.578,12.137H48.547Zm0,36.022V66.753H63.415C60.156,76.2,54.78,82.9,48.547,84.569ZM62.535,81.1a48.48,48.48,0,0,0,7.149-14.352h9.078A39.648,39.648,0,0,1,62.535,81.1Zm19.4-20.42H71.267A72.068,72.068,0,0,0,72.76,48.547H84.836A38.927,38.927,0,0,1,81.936,60.684ZM72.76,42.479a72.068,72.068,0,0,0-1.493-12.137H81.936a39.1,39.1,0,0,1,2.907,12.137Z" fill="#acc6d5"/>
</svg>
