<svg id="web" xmlns="http://www.w3.org/2000/svg" width="42.684" height="42.684" viewBox="0 0 42.684 42.684">
  <path id="Path_46" data-name="Path 46" d="M42.633,19.919A21.337,21.337,0,0,0,22.765.048V0H19.919V.048A21.339,21.339,0,0,0,.048,19.919H0v2.846H.048A21.337,21.337,0,0,0,19.919,42.633v.051h2.846v-.051A21.334,21.334,0,0,0,42.633,22.765h.051V19.919ZM13.36,4.653a22.624,22.624,0,0,0-3.346,6.73H5.751A18.594,18.594,0,0,1,13.36,4.653Zm-9.1,9.576h5a33.794,33.794,0,0,0-.7,5.691H2.9A18.336,18.336,0,0,1,4.263,14.228ZM2.9,22.765H8.565a33.794,33.794,0,0,0,.7,5.691h-5A18.336,18.336,0,0,1,2.9,22.765ZM5.751,31.3h4.26a22.56,22.56,0,0,0,3.349,6.73A18.574,18.574,0,0,1,5.751,31.3Zm14.168,8.355c-2.925-.783-5.444-3.924-6.972-8.355h6.972Zm0-11.2H12.148a31.8,31.8,0,0,1-.737-5.691h8.508Zm0-8.537H11.411a31.8,31.8,0,0,1,.737-5.691h7.771Zm0-8.537H12.948c1.528-4.431,4.046-7.572,6.972-8.352Zm17.014,0H32.676a22.564,22.564,0,0,0-3.352-6.73A18.612,18.612,0,0,1,36.933,11.383ZM22.765,3.031c2.922.78,5.444,3.921,6.972,8.352H22.765Zm0,11.2h7.769a32.06,32.06,0,0,1,.74,5.691H22.765Zm0,8.537h8.508a31.543,31.543,0,0,1-.74,5.691H22.765Zm0,16.892V31.3h6.972C28.209,35.733,25.687,38.874,22.765,39.657Zm6.559-1.625a22.734,22.734,0,0,0,3.352-6.73h4.257A18.592,18.592,0,0,1,29.324,38.032Zm9.1-9.576h-5a33.794,33.794,0,0,0,.7-5.691h5.663A18.254,18.254,0,0,1,38.422,28.456Zm-4.3-8.537a33.794,33.794,0,0,0-.7-5.691h5a18.336,18.336,0,0,1,1.363,5.691Z" fill="#35495e"/>
</svg>
